<mxfile host="app.diagrams.net" modified="2021-09-23T07:07:02.579Z" agent="5.0 (Windows NT 10.0; Win64; x64) AppleWebKit/537.36 (KHTML, like Gecko) Chrome/93.0.4577.82 Safari/537.36" etag="k5N5NQnlaQYic06GwboW" version="14.9.8" type="github" pages="2">
  <diagram id="_0uPFZF7yXyicgU4n7Zn" name="m300">
    <mxGraphModel dx="1360" dy="802" grid="1" gridSize="10" guides="1" tooltips="1" connect="1" arrows="1" fold="1" page="1" pageScale="1" pageWidth="827" pageHeight="1169" math="0" shadow="0">
      <root>
        <mxCell id="0" />
        <mxCell id="1" parent="0" />
        <mxCell id="XstXHUpEY6hUP57EBNUD-18" style="edgeStyle=orthogonalEdgeStyle;rounded=0;orthogonalLoop=1;jettySize=auto;html=1;exitX=0.5;exitY=1;exitDx=0;exitDy=0;entryX=0.423;entryY=-0.033;entryDx=0;entryDy=0;entryPerimeter=0;fontSize=18;startArrow=classic;startFill=1;strokeWidth=1;" parent="1" source="XstXHUpEY6hUP57EBNUD-1" target="XstXHUpEY6hUP57EBNUD-6" edge="1">
          <mxGeometry relative="1" as="geometry" />
        </mxCell>
        <mxCell id="XstXHUpEY6hUP57EBNUD-1" value="管理M300" style="rounded=0;whiteSpace=wrap;html=1;fontSize=18;strokeWidth=2;" parent="1" vertex="1">
          <mxGeometry x="270" y="360" width="170" height="130" as="geometry" />
        </mxCell>
        <mxCell id="XstXHUpEY6hUP57EBNUD-2" value="主控M300" style="rounded=0;whiteSpace=wrap;html=1;fontSize=18;strokeWidth=2;" parent="1" vertex="1">
          <mxGeometry x="560" y="360" width="170" height="130" as="geometry" />
        </mxCell>
        <mxCell id="XstXHUpEY6hUP57EBNUD-3" value="FPGA" style="rounded=0;whiteSpace=wrap;html=1;fontSize=18;strokeWidth=2;" parent="1" vertex="1">
          <mxGeometry x="270" y="110" width="170" height="130" as="geometry" />
        </mxCell>
        <mxCell id="XstXHUpEY6hUP57EBNUD-22" style="edgeStyle=orthogonalEdgeStyle;rounded=0;orthogonalLoop=1;jettySize=auto;html=1;fontSize=18;startArrow=classic;startFill=1;strokeWidth=1;" parent="1" source="XstXHUpEY6hUP57EBNUD-4" target="XstXHUpEY6hUP57EBNUD-1" edge="1">
          <mxGeometry relative="1" as="geometry" />
        </mxCell>
        <mxCell id="XstXHUpEY6hUP57EBNUD-4" value="NorFlash" style="rounded=0;whiteSpace=wrap;html=1;fontSize=18;" parent="1" vertex="1">
          <mxGeometry x="30" y="360" width="130" height="60" as="geometry" />
        </mxCell>
        <mxCell id="XstXHUpEY6hUP57EBNUD-23" style="edgeStyle=orthogonalEdgeStyle;rounded=0;orthogonalLoop=1;jettySize=auto;html=1;entryX=0;entryY=0.7;entryDx=0;entryDy=0;entryPerimeter=0;fontSize=18;startArrow=classic;startFill=1;strokeWidth=1;" parent="1" source="XstXHUpEY6hUP57EBNUD-5" target="XstXHUpEY6hUP57EBNUD-1" edge="1">
          <mxGeometry relative="1" as="geometry" />
        </mxCell>
        <mxCell id="XstXHUpEY6hUP57EBNUD-5" value="NorFlash" style="rounded=0;whiteSpace=wrap;html=1;fontSize=18;" parent="1" vertex="1">
          <mxGeometry x="30" y="460" width="130" height="60" as="geometry" />
        </mxCell>
        <mxCell id="XstXHUpEY6hUP57EBNUD-6" value="随机数" style="rounded=0;whiteSpace=wrap;html=1;fontSize=18;" parent="1" vertex="1">
          <mxGeometry x="300" y="570" width="130" height="60" as="geometry" />
        </mxCell>
        <mxCell id="XstXHUpEY6hUP57EBNUD-8" value="GMAC0" style="text;html=1;strokeColor=none;fillColor=none;align=center;verticalAlign=middle;whiteSpace=wrap;rounded=0;fontSize=18;horizontal=0;" parent="1" vertex="1">
          <mxGeometry x="270" y="290" width="40" height="30" as="geometry" />
        </mxCell>
        <mxCell id="XstXHUpEY6hUP57EBNUD-9" value="" style="endArrow=classic;startArrow=classic;html=1;fontSize=18;entryX=0.25;entryY=1;entryDx=0;entryDy=0;" parent="1" target="XstXHUpEY6hUP57EBNUD-3" edge="1">
          <mxGeometry width="50" height="50" relative="1" as="geometry">
            <mxPoint x="313" y="359" as="sourcePoint" />
            <mxPoint x="440" y="290" as="targetPoint" />
          </mxGeometry>
        </mxCell>
        <mxCell id="XstXHUpEY6hUP57EBNUD-10" value="" style="endArrow=classic;startArrow=classic;html=1;fontSize=18;entryX=0.25;entryY=1;entryDx=0;entryDy=0;" parent="1" edge="1">
          <mxGeometry width="50" height="50" relative="1" as="geometry">
            <mxPoint x="390.5" y="359" as="sourcePoint" />
            <mxPoint x="390" y="240" as="targetPoint" />
          </mxGeometry>
        </mxCell>
        <mxCell id="XstXHUpEY6hUP57EBNUD-11" value="SDIO" style="text;html=1;strokeColor=none;fillColor=none;align=center;verticalAlign=middle;whiteSpace=wrap;rounded=0;fontSize=18;horizontal=0;" parent="1" vertex="1">
          <mxGeometry x="390" y="290" width="40" height="30" as="geometry" />
        </mxCell>
        <mxCell id="XstXHUpEY6hUP57EBNUD-12" value="" style="endArrow=classic;startArrow=classic;html=1;fontSize=18;entryX=1;entryY=0.615;entryDx=0;entryDy=0;entryPerimeter=0;" parent="1" edge="1">
          <mxGeometry width="50" height="50" relative="1" as="geometry">
            <mxPoint x="600" y="357" as="sourcePoint" />
            <mxPoint x="440" y="196.95000000000005" as="targetPoint" />
            <Array as="points">
              <mxPoint x="600" y="197" />
            </Array>
          </mxGeometry>
        </mxCell>
        <mxCell id="XstXHUpEY6hUP57EBNUD-14" value="GMAC0" style="text;html=1;strokeColor=none;fillColor=none;align=center;verticalAlign=middle;whiteSpace=wrap;rounded=0;fontSize=18;horizontal=0;" parent="1" vertex="1">
          <mxGeometry x="560" y="270" width="40" height="30" as="geometry" />
        </mxCell>
        <mxCell id="XstXHUpEY6hUP57EBNUD-15" value="" style="endArrow=classic;startArrow=classic;html=1;fontSize=18;entryX=1;entryY=0.5;entryDx=0;entryDy=0;exitX=0;exitY=0.5;exitDx=0;exitDy=0;" parent="1" source="XstXHUpEY6hUP57EBNUD-2" target="XstXHUpEY6hUP57EBNUD-1" edge="1">
          <mxGeometry width="50" height="50" relative="1" as="geometry">
            <mxPoint x="520.5" y="499" as="sourcePoint" />
            <mxPoint x="520" y="380" as="targetPoint" />
          </mxGeometry>
        </mxCell>
        <mxCell id="XstXHUpEY6hUP57EBNUD-16" value="GMAC1" style="text;html=1;strokeColor=none;fillColor=none;align=center;verticalAlign=middle;whiteSpace=wrap;rounded=0;fontSize=18;horizontal=1;" parent="1" vertex="1">
          <mxGeometry x="480" y="390" width="40" height="30" as="geometry" />
        </mxCell>
        <mxCell id="XstXHUpEY6hUP57EBNUD-19" value="GPIO" style="text;html=1;strokeColor=none;fillColor=none;align=center;verticalAlign=middle;whiteSpace=wrap;rounded=0;fontSize=18;horizontal=0;rotation=-180;" parent="1" vertex="1">
          <mxGeometry x="350" y="510" width="40" height="30" as="geometry" />
        </mxCell>
        <mxCell id="XstXHUpEY6hUP57EBNUD-20" value="" style="endArrow=classic;startArrow=classic;html=1;fontSize=18;entryX=1;entryY=0.615;entryDx=0;entryDy=0;entryPerimeter=0;exitX=0.706;exitY=0.015;exitDx=0;exitDy=0;exitPerimeter=0;" parent="1" source="XstXHUpEY6hUP57EBNUD-2" edge="1">
          <mxGeometry width="50" height="50" relative="1" as="geometry">
            <mxPoint x="645" y="309.05" as="sourcePoint" />
            <mxPoint x="440" y="140.00000000000006" as="targetPoint" />
            <Array as="points">
              <mxPoint x="680" y="140" />
            </Array>
          </mxGeometry>
        </mxCell>
        <mxCell id="XstXHUpEY6hUP57EBNUD-21" value="SDIO" style="text;html=1;strokeColor=none;fillColor=none;align=center;verticalAlign=middle;whiteSpace=wrap;rounded=0;fontSize=18;horizontal=0;" parent="1" vertex="1">
          <mxGeometry x="680" y="270" width="40" height="30" as="geometry" />
        </mxCell>
        <mxCell id="XstXHUpEY6hUP57EBNUD-24" value="SFC" style="text;html=1;strokeColor=none;fillColor=none;align=center;verticalAlign=middle;whiteSpace=wrap;rounded=0;fontSize=18;horizontal=0;rotation=90;" parent="1" vertex="1">
          <mxGeometry x="180" y="360" width="20" height="30" as="geometry" />
        </mxCell>
        <mxCell id="XstXHUpEY6hUP57EBNUD-25" value="SPI" style="text;html=1;strokeColor=none;fillColor=none;align=center;verticalAlign=middle;whiteSpace=wrap;rounded=0;fontSize=18;horizontal=0;rotation=90;" parent="1" vertex="1">
          <mxGeometry x="180" y="490" width="20" height="30" as="geometry" />
        </mxCell>
      </root>
    </mxGraphModel>
  </diagram>
  <diagram id="D_lzBPCxiZMvcZMQE94k" name="ls2k">
    <mxGraphModel dx="2187" dy="1971" grid="1" gridSize="10" guides="1" tooltips="1" connect="1" arrows="1" fold="1" page="1" pageScale="1" pageWidth="827" pageHeight="1169" math="0" shadow="0">
      <root>
        <mxCell id="NACKIPSiftr5XCz6YlSm-0" />
        <mxCell id="NACKIPSiftr5XCz6YlSm-1" parent="NACKIPSiftr5XCz6YlSm-0" />
        <mxCell id="N8xGDMyzGF9vdANU1ruF-0" style="edgeStyle=orthogonalEdgeStyle;rounded=0;orthogonalLoop=1;jettySize=auto;html=1;exitX=0.5;exitY=1;exitDx=0;exitDy=0;entryX=0.423;entryY=-0.033;entryDx=0;entryDy=0;entryPerimeter=0;fontSize=18;startArrow=classic;startFill=1;strokeWidth=1;" edge="1" parent="NACKIPSiftr5XCz6YlSm-1" source="N8xGDMyzGF9vdANU1ruF-1" target="N8xGDMyzGF9vdANU1ruF-8">
          <mxGeometry relative="1" as="geometry" />
        </mxCell>
        <mxCell id="N8xGDMyzGF9vdANU1ruF-1" value="龙芯2K1000" style="rounded=0;whiteSpace=wrap;html=1;fontSize=18;strokeWidth=2;" vertex="1" parent="NACKIPSiftr5XCz6YlSm-1">
          <mxGeometry x="270" y="360" width="170" height="130" as="geometry" />
        </mxCell>
        <mxCell id="N8xGDMyzGF9vdANU1ruF-2" value="主控M300" style="rounded=0;whiteSpace=wrap;html=1;fontSize=18;strokeWidth=2;" vertex="1" parent="NACKIPSiftr5XCz6YlSm-1">
          <mxGeometry x="560" y="360" width="170" height="130" as="geometry" />
        </mxCell>
        <mxCell id="N8xGDMyzGF9vdANU1ruF-3" value="LCD&lt;br&gt;&amp;nbsp;800x480@30fps" style="rounded=0;whiteSpace=wrap;html=1;fontSize=18;strokeWidth=2;" vertex="1" parent="NACKIPSiftr5XCz6YlSm-1">
          <mxGeometry x="240" y="-290" width="200" height="90" as="geometry" />
        </mxCell>
        <mxCell id="N8xGDMyzGF9vdANU1ruF-4" style="edgeStyle=orthogonalEdgeStyle;rounded=0;orthogonalLoop=1;jettySize=auto;html=1;fontSize=18;startArrow=classic;startFill=1;strokeWidth=1;" edge="1" parent="NACKIPSiftr5XCz6YlSm-1" source="N8xGDMyzGF9vdANU1ruF-5" target="N8xGDMyzGF9vdANU1ruF-1">
          <mxGeometry relative="1" as="geometry" />
        </mxCell>
        <mxCell id="N8xGDMyzGF9vdANU1ruF-5" value="NorFlash" style="rounded=0;whiteSpace=wrap;html=1;fontSize=18;" vertex="1" parent="NACKIPSiftr5XCz6YlSm-1">
          <mxGeometry x="30" y="360" width="130" height="60" as="geometry" />
        </mxCell>
        <mxCell id="N8xGDMyzGF9vdANU1ruF-6" style="edgeStyle=orthogonalEdgeStyle;rounded=0;orthogonalLoop=1;jettySize=auto;html=1;entryX=0;entryY=0.7;entryDx=0;entryDy=0;entryPerimeter=0;fontSize=18;startArrow=classic;startFill=1;strokeWidth=1;" edge="1" parent="NACKIPSiftr5XCz6YlSm-1" source="N8xGDMyzGF9vdANU1ruF-7" target="N8xGDMyzGF9vdANU1ruF-1">
          <mxGeometry relative="1" as="geometry" />
        </mxCell>
        <mxCell id="N8xGDMyzGF9vdANU1ruF-7" value="NorFlash" style="rounded=0;whiteSpace=wrap;html=1;fontSize=18;" vertex="1" parent="NACKIPSiftr5XCz6YlSm-1">
          <mxGeometry x="30" y="460" width="130" height="60" as="geometry" />
        </mxCell>
        <mxCell id="N8xGDMyzGF9vdANU1ruF-8" value="随机数" style="rounded=0;whiteSpace=wrap;html=1;fontSize=18;" vertex="1" parent="NACKIPSiftr5XCz6YlSm-1">
          <mxGeometry x="300" y="570" width="130" height="60" as="geometry" />
        </mxCell>
        <mxCell id="N8xGDMyzGF9vdANU1ruF-9" value="GMAC0" style="text;html=1;strokeColor=none;fillColor=none;align=center;verticalAlign=middle;whiteSpace=wrap;rounded=0;fontSize=18;horizontal=0;" vertex="1" parent="NACKIPSiftr5XCz6YlSm-1">
          <mxGeometry x="270" y="290" width="40" height="30" as="geometry" />
        </mxCell>
        <mxCell id="N8xGDMyzGF9vdANU1ruF-11" value="" style="endArrow=classic;startArrow=classic;html=1;fontSize=18;entryX=0.25;entryY=1;entryDx=0;entryDy=0;" edge="1" parent="NACKIPSiftr5XCz6YlSm-1">
          <mxGeometry width="50" height="50" relative="1" as="geometry">
            <mxPoint x="390.5" y="359" as="sourcePoint" />
            <mxPoint x="390" y="240" as="targetPoint" />
          </mxGeometry>
        </mxCell>
        <mxCell id="N8xGDMyzGF9vdANU1ruF-12" value="SDIO" style="text;html=1;strokeColor=none;fillColor=none;align=center;verticalAlign=middle;whiteSpace=wrap;rounded=0;fontSize=18;horizontal=0;" vertex="1" parent="NACKIPSiftr5XCz6YlSm-1">
          <mxGeometry x="390" y="290" width="40" height="30" as="geometry" />
        </mxCell>
        <mxCell id="N8xGDMyzGF9vdANU1ruF-15" value="" style="endArrow=classic;startArrow=classic;html=1;fontSize=18;entryX=1;entryY=0.5;entryDx=0;entryDy=0;exitX=0;exitY=0.5;exitDx=0;exitDy=0;" edge="1" parent="NACKIPSiftr5XCz6YlSm-1" source="N8xGDMyzGF9vdANU1ruF-2" target="N8xGDMyzGF9vdANU1ruF-1">
          <mxGeometry width="50" height="50" relative="1" as="geometry">
            <mxPoint x="520.5" y="499" as="sourcePoint" />
            <mxPoint x="520" y="380" as="targetPoint" />
          </mxGeometry>
        </mxCell>
        <mxCell id="N8xGDMyzGF9vdANU1ruF-16" value="GMAC1" style="text;html=1;strokeColor=none;fillColor=none;align=center;verticalAlign=middle;whiteSpace=wrap;rounded=0;fontSize=18;horizontal=1;" vertex="1" parent="NACKIPSiftr5XCz6YlSm-1">
          <mxGeometry x="480" y="390" width="40" height="30" as="geometry" />
        </mxCell>
        <mxCell id="N8xGDMyzGF9vdANU1ruF-17" value="GPIO" style="text;html=1;strokeColor=none;fillColor=none;align=center;verticalAlign=middle;whiteSpace=wrap;rounded=0;fontSize=18;horizontal=0;rotation=-180;" vertex="1" parent="NACKIPSiftr5XCz6YlSm-1">
          <mxGeometry x="350" y="510" width="40" height="30" as="geometry" />
        </mxCell>
        <mxCell id="N8xGDMyzGF9vdANU1ruF-20" value="SFC" style="text;html=1;strokeColor=none;fillColor=none;align=center;verticalAlign=middle;whiteSpace=wrap;rounded=0;fontSize=18;horizontal=0;rotation=90;" vertex="1" parent="NACKIPSiftr5XCz6YlSm-1">
          <mxGeometry x="180" y="360" width="20" height="30" as="geometry" />
        </mxCell>
        <mxCell id="N8xGDMyzGF9vdANU1ruF-21" value="SPI" style="text;html=1;strokeColor=none;fillColor=none;align=center;verticalAlign=middle;whiteSpace=wrap;rounded=0;fontSize=18;horizontal=0;rotation=90;" vertex="1" parent="NACKIPSiftr5XCz6YlSm-1">
          <mxGeometry x="180" y="490" width="20" height="30" as="geometry" />
        </mxCell>
        <mxCell id="N8xGDMyzGF9vdANU1ruF-22" value="Touch" style="rounded=0;whiteSpace=wrap;html=1;fontSize=18;strokeWidth=2;" vertex="1" parent="NACKIPSiftr5XCz6YlSm-1">
          <mxGeometry x="160" y="-160" width="120" height="40" as="geometry" />
        </mxCell>
        <mxCell id="N8xGDMyzGF9vdANU1ruF-23" value="keyboard" style="rounded=0;whiteSpace=wrap;html=1;fontSize=18;strokeWidth=2;" vertex="1" parent="NACKIPSiftr5XCz6YlSm-1">
          <mxGeometry x="400" y="-160" width="120" height="40" as="geometry" />
        </mxCell>
        <mxCell id="N8xGDMyzGF9vdANU1ruF-25" value="Bak Radio/键鼠" style="rounded=0;whiteSpace=wrap;html=1;fontSize=18;" vertex="1" parent="NACKIPSiftr5XCz6YlSm-1">
          <mxGeometry x="-90" width="130" height="60" as="geometry" />
        </mxCell>
        <mxCell id="N8xGDMyzGF9vdANU1ruF-26" value="龙芯2K1000" style="rounded=0;whiteSpace=wrap;html=1;fontSize=18;strokeWidth=2;" vertex="1" parent="NACKIPSiftr5XCz6YlSm-1">
          <mxGeometry x="180" width="340" height="220" as="geometry" />
        </mxCell>
        <mxCell id="N8xGDMyzGF9vdANU1ruF-27" value="External Lan" style="rounded=0;whiteSpace=wrap;html=1;fontSize=18;" vertex="1" parent="NACKIPSiftr5XCz6YlSm-1">
          <mxGeometry x="640" width="130" height="60" as="geometry" />
        </mxCell>
        <mxCell id="N8xGDMyzGF9vdANU1ruF-28" value="RNDIS" style="rounded=0;whiteSpace=wrap;html=1;fontSize=18;" vertex="1" parent="NACKIPSiftr5XCz6YlSm-1">
          <mxGeometry x="-90" y="110" width="130" height="60" as="geometry" />
        </mxCell>
      </root>
    </mxGraphModel>
  </diagram>
</mxfile>
